<svg xmlns="http://www.w3.org/2000/svg" viewBox="0 0 400 400" fill="#facc15">
  <path d="M65.5,0C47.5,0,33,14.5,33,32.5v65c0,18,14.5,32.5,32.5,32.5S98,115.5,98,97.5v-65C98,14.5,83.5,0,65.5,0z M334.5,0 c-18,0-32.5,14.5-32.5,32.5v65c0,18,14.5,32.5,32.5,32.5S367,115.5,367,97.5v-65C367,14.5,352.5,0,334.5,0z M200,0 c-18,0-32.5,14.5-32.5,32.5v65c0,18,14.5,32.5,32.5,32.5s32.5-14.5,32.5-32.5v-65C232.5,14.5,218,0,200,0z M65.5,270 c-18,0-32.5,14.5-32.5,32.5v65c0,18,14.5,32.5,32.5,32.5S98,385.5,98,367.5v-65C98,284.5,83.5,270,65.5,270z M334.5,270 c-18,0-32.5,14.5-32.5,32.5v65c0,18,14.5,32.5,32.5,32.5S367,385.5,367,367.5v-65C367,284.5,352.5,270,334.5,270z M200,270 c-18,0-32.5,14.5-32.5,32.5v65c0,18,14.5,32.5,32.5,32.5s32.5-14.5,32.5-32.5v-65C232.5,284.5,218,270,200,270z" />
</svg>